<?xml version="1.0" encoding="UTF-8" standalone="no"?>
<!-- Created with Inkscape (http://www.inkscape.org/) -->

<svg
   version="1.1"
   id="svg182"
   width="552.10736"
   height="568.38672"
   viewBox="0 0 552.10737 568.38664"
   xmlns="http://www.w3.org/2000/svg"
   xmlns:svg="http://www.w3.org/2000/svg">
  <defs
     id="defs186" />
  <g
     id="g188"
     transform="translate(-158.40294,-242.65983)">
    <path
       style="fill:#000000;stroke:#000000;stroke-width:13.111;stroke-dasharray:none;stroke-opacity:1"
       d="m 597.27943,774.71301 c -1.60698,-0.99768 -24.24541,-21.06458 -121.80942,-107.97287 l -18.0724,-16.09857 -31.44176,-0.0118 c -19.63701,-0.007 -32.14842,-0.20804 -33.32391,-0.53454 -2.70558,-0.75149 -5.4273,-3.95069 -5.86945,-6.89911 -0.4875,-3.2509 1.26286,-6.80509 4.14352,-8.41362 l 2.06176,-1.15125 34.50048,-0.009 c 33.60613,-0.008 34.55485,0.0186 36.59614,1.03427 1.15262,0.57351 30.62519,26.45004 65.49461,57.50342 l 63.39894,56.46067 0.25772,-54.88856 c 0.25555,-54.43176 0.26653,-54.90039 1.32045,-56.31183 0.58446,-0.7828 1.70291,-1.90151 2.48534,-2.486 1.38978,-1.03816 2.12794,-1.06869 31.92539,-1.32045 l 30.50267,-0.25772 2.74867,-1.52258 c 3.00243,-1.66315 4.68075,-3.40396 6.425,-6.6644 l 1.1351,-2.12177 0.13293,-127.29623 c 0.15056,-144.18257 0.561,-130.82717 -4.16603,-135.55424 -4.13289,-4.13288 -5.37211,-4.40385 -20.1555,-4.40728 -6.82415,-0.002 -13.2545,-0.23812 -14.28971,-0.52566 -2.40998,-0.66939 -5.42169,-3.96852 -5.88698,-6.44885 -0.76558,-4.08091 2.3839,-9.08819 6.16217,-9.797 0.94248,-0.1768 8.18414,-0.22879 16.09256,-0.11553 13.12105,0.18793 14.63938,0.3024 17.35579,1.30852 11.16651,4.13591 18.22653,11.73061 21.00551,22.59624 0.9982,3.90304 1.01645,6.26691 1.01645,131.89584 0,125.70435 -0.0175,127.99058 -1.01825,131.90278 -2.82981,11.06454 -10.99111,19.46148 -22.19989,22.84096 -2.40153,0.72407 -6.5122,0.87615 -28.18845,1.04287 l -25.37695,0.19518 -0.13726,59.63119 c -0.13607,59.10133 -0.14669,59.64723 -1.19602,61.43353 -2.39643,4.07939 -7.66761,5.42237 -11.62922,2.96285 z m -334.0229,-73.07002 c -1.03536,-0.547 -2.42705,-1.87045 -3.09263,-2.94099 l -1.21015,-1.94645 -0.13931,-59.62676 -0.13931,-59.62677 -24.85946,-0.21689 c -17.33499,-0.15125 -25.63952,-0.40981 -27.43665,-0.85424 -11.62592,-2.8751 -21.30712,-12.699 -23.71511,-24.06467 -0.6451,-3.04491 -0.75157,-21.43685 -0.75927,-131.15897 -0.009,-125.97488 0.004,-127.66993 1.02298,-131.69455 1.58245,-6.25215 3.81156,-10.21257 8.28206,-14.7146 3.06962,-3.09126 4.84168,-4.38426 8.25069,-6.02022 2.3878,-1.14589 5.73314,-2.34166 7.43409,-2.65727 2.24521,-0.4166 54.85609,-0.53244 192.00085,-0.42276 l 188.90824,0.15108 3.45164,1.38398 c 9.55262,3.83026 16.13415,10.70479 19.36203,20.22403 l 1.41195,4.16392 0.14937,126.79789 c 0.0982,83.32714 -0.0294,128.1571 -0.37153,130.76254 -1.66017,12.63601 -9.75684,22.46253 -21.90129,26.58058 l -4.16392,1.41194 -87.2004,0.25772 -87.20036,0.25772 -13.31015,11.86519 c -81.76646,72.88985 -125.32056,111.4771 -126.64774,112.20503 -2.13221,1.16948 -5.79185,1.11702 -8.12662,-0.11648 z m 73.30155,-80.2143 c 33.00977,-29.3814 61.48425,-54.72165 63.27664,-56.31166 1.79238,-1.59001 3.87991,-3.23885 4.63895,-3.66409 1.20687,-0.67613 12.57056,-0.8055 90.55095,-1.03088 l 89.17086,-0.25772 2.31948,-1.2153 c 3.16226,-1.65689 5.49875,-3.96013 7.13331,-7.03171 l 1.37142,-2.5772 0.13397,-126.77727 c 0.14798,-140.0566 0.38663,-129.77843 -3.12,-134.37592 -0.92867,-1.2176 -2.82208,-2.91463 -4.20748,-3.77117 l -2.519,-1.55736 H 397.1317 c -182.44091,0 -188.23428,0.0292 -190.10474,0.95902 -2.98366,1.48315 -5.89382,4.72222 -7.07205,7.87131 -1.05772,2.82702 -1.05783,2.84269 -0.92494,130.4971 l 0.13291,127.66973 1.16323,2.17693 c 1.56878,2.93589 4.09457,5.37048 7.13796,6.88023 l 2.52302,1.25161 30.15315,0.25772 c 33.84558,0.28928 32.20673,0.0922 34.4858,4.14726 1.07663,1.9156 1.07946,2.06285 1.07946,56.10037 0,29.79885 0.18784,54.17973 0.41741,54.17973 0.22958,0 27.42541,-24.03933 60.43517,-53.42073 z M 307.14725,444.2557 c -5.88896,-1.62124 -9.93415,-4.87143 -12.53607,-10.07235 -2.11897,-4.23559 -2.72044,-8.18059 -1.87283,-12.28376 2.65916,-12.87241 16.35552,-19.59419 27.95179,-13.71792 6.94471,3.51915 11.36158,11.84042 10.39426,19.58254 -1.42356,11.39381 -13.13804,19.4645 -23.93715,16.49149 z m 6.40617,-17.62676 c 0.44548,-0.44548 0.80997,-1.02535 0.80997,-1.28859 0,-0.57935 -1.90092,-2.54038 -2.4625,-2.54038 -0.9374,0 -2.69188,1.6821 -2.69188,2.58081 0,1.85413 2.90408,2.68849 4.34441,1.24816 z m 78.12575,17.62676 c -5.88896,-1.62124 -9.93415,-4.87143 -12.53607,-10.07235 -2.95635,-5.9094 -2.95647,-11.89211 -3.7e-4,-17.7426 3.58419,-7.09354 12.44358,-11.57722 20.08462,-10.1647 10.92399,2.01942 18.03136,11.84295 16.14372,22.3132 -2.03286,11.27565 -13.08775,18.58578 -23.6919,15.66645 z m 6.59761,-17.43531 c 0.85719,-0.85718 0.7728,-1.96475 -0.23451,-3.07781 -1.10009,-1.21559 -1.99064,-1.19155 -3.27047,0.0883 -1.24289,1.2429 -1.28191,1.73708 -0.2209,2.79809 0.96132,0.96132 2.85853,1.05881 3.72588,0.19145 z m 78.25272,17.60247 c -7.58989,-1.90452 -13.32254,-8.07726 -14.73489,-15.86608 -2.76425,-15.24386 13.934,-27.53519 27.78543,-20.45244 5.8225,2.97726 10.011,9.05652 10.66324,15.47671 0.84898,8.35682 -4.85151,17.39142 -12.69252,20.11618 -2.93207,1.01889 -8.41417,1.37983 -11.02126,0.72563 z m 6.27922,-17.60247 c 0.85718,-0.85718 0.7728,-1.96475 -0.23452,-3.07781 -1.1001,-1.21559 -1.99067,-1.19155 -3.27046,0.0883 -1.24293,1.2429 -1.28194,1.73708 -0.22091,2.79809 0.96129,0.96132 2.85852,1.05881 3.72589,0.19145 z"
       id="path300" />
  </g>
</svg>
